<svg xmlns="http://www.w3.org/2000/svg" style="display: none;">
  
                  <symbol id="twitter" viewBox="0 0 100 100">
                    <circle class="outer-shape" cx="50" cy="50" r="48" style="opacity: 1; fill: rgb(165, 172, 186);"></circle>
                  <path class="inner-shape" style="opacity:1;fill:#f7f7f7;" transform="translate(25,25) scale(0.5)" d="M99.001,19.428c-3.606,1.608-7.48,2.695-11.547,3.184c4.15-2.503,7.338-6.466,8.841-11.189 c-3.885,2.318-8.187,4-12.768,4.908c-3.667-3.931-8.893-6.387-14.676-6.387c-11.104,0-20.107,9.054-20.107,20.223 c0,1.585,0.177,3.128,0.52,4.609c-16.71-0.845-31.525-8.895-41.442-21.131C6.092,16.633,5.1,20.107,5.1,23.813 c0,7.017,3.55,13.208,8.945,16.834c-3.296-0.104-6.397-1.014-9.106-2.529c-0.002,0.085-0.002,0.17-0.002,0.255 c0,9.799,6.931,17.972,16.129,19.831c-1.688,0.463-3.463,0.71-5.297,0.71c-1.296,0-2.555-0.127-3.783-0.363 c2.559,8.034,9.984,13.882,18.782,14.045c-6.881,5.424-15.551,8.657-24.971,8.657c-1.623,0-3.223-0.096-4.796-0.282 c8.898,5.738,19.467,9.087,30.82,9.087c36.982,0,57.206-30.817,57.206-57.543c0-0.877-0.02-1.748-0.059-2.617 C92.896,27.045,96.305,23.482,99.001,19.428z"></path>
                  </symbol>
                  
                  <symbol id="facebook" viewBox="0 0 100 100">
                    <circle class="outer-shape" cx="50" cy="50" r="48" fill="#a5acba"/><path class="inner-shape" d="M66.334 25.5H33.668c-4.492 0-8.168 3.676-8.168 8.168v32.664c0 4.496 3.675 8.168 8.167 8.168h32.666c4.493 0 8.167-3.672 8.167-8.167V33.669c0-4.492-3.674-8.168-8.166-8.169zm.825 24.5h-7.972v21.438H50V50h-4.428v-7.014H50v-4.554c0-6.19 2.67-9.87 9.947-9.87h8.386v7.588h-6.85c-2.033-.004-2.285 1.06-2.285 3.039l-.011 3.797h9.188l-1.216 7.013V50z" fill="#f7f7f7"/>
                  </symbol>
                  
                  <symbol id="instagram" viewBox="0 0 100 100">
                    <circle class="outer-shape" cx="50" cy="50" r="48" fill="#a5acba"/><path class="inner-shape" d="M69.1 25.5H30.9a5.389 5.389 0 0 0-5.387 5.39v38.22A5.388 5.388 0 0 0 30.9 74.5h38.2a5.388 5.388 0 0 0 5.387-5.39V30.89A5.39 5.39 0 0 0 69.1 25.5zM49.973 40.592c5.178 0 9.376 4.2 9.376 9.381 0 5.18-4.198 9.38-9.376 9.38s-9.376-4.2-9.376-9.38 4.197-9.381 9.376-9.381zm18.783 26.215c0 1.083-.876 1.96-1.958 1.96H33.17a1.959 1.959 0 0 1-1.958-1.96v-20.53h4.254a15.073 15.073 0 0 0-.452 3.67c0 8.307 6.73 15.04 15.031 15.04s15.032-6.733 15.032-15.04c0-1.266-.158-2.494-.452-3.67h4.131v20.53zm.126-28.245c0 1.083-.877 1.96-1.959 1.96h-5.562a1.959 1.959 0 0 1-1.958-1.96v-5.565c0-1.082.877-1.96 1.958-1.96h5.562c1.082 0 1.959.878 1.959 1.96v5.565z" fill="#f7f7f7"/>
                  </symbol>
  
</svg>